<svg width="127" height="22" viewBox="0 0 127 22" fill="none" xmlns="http://www.w3.org/2000/svg">
<g id="Group 13">
<path id="Vector" d="M60.1005 21.0677C58.8848 21.086 57.6782 20.8568 56.5539 20.3941C55.5336 19.9695 54.6123 19.338 53.8483 18.5396C53.097 17.7478 52.507 16.8174 52.1112 15.8002C51.6972 14.7382 51.4885 13.6072 51.4964 12.4673C51.4875 11.3302 51.6962 10.2018 52.1112 9.14312C52.5093 8.12969 53.0991 7.20256 53.8483 6.41255C54.6109 5.61515 55.5327 4.98711 56.5539 4.56925C58.8357 3.68785 61.364 3.68785 63.6459 4.56925C64.6695 4.98602 65.5935 5.61414 66.3577 6.41255C67.1065 7.20315 67.6966 8.1301 68.096 9.14312C68.5101 10.2012 68.7188 11.3286 68.7109 12.4648C68.7164 13.6059 68.5057 14.7377 68.0898 15.8002C67.6945 16.8165 67.1064 17.7467 66.3577 18.5396C65.5939 19.3383 64.6726 19.9698 63.6521 20.3941C62.5263 20.8576 61.3178 21.0868 60.1005 21.0677ZM60.0768 19.0594C60.9452 19.0675 61.806 18.8973 62.6061 18.5596C63.3673 18.2365 64.0548 17.762 64.6269 17.1649C65.205 16.5619 65.6589 15.8511 65.9628 15.0729C66.284 14.2404 66.4443 13.3546 66.4352 12.4623C66.4421 11.5735 66.2819 10.6913 65.9628 9.8617C65.6621 9.08196 65.2078 8.37056 64.6269 7.76971C64.0535 7.17924 63.3659 6.71155 62.6061 6.39505C61.8038 6.06629 60.9438 5.90143 60.0768 5.91017C59.2176 5.90295 58.3656 6.06782 57.5711 6.39505C56.8134 6.70925 56.1291 7.17735 55.5616 7.76971C54.9873 8.37042 54.5367 9.07828 54.2357 9.85295C53.9135 10.6856 53.7528 11.572 53.7621 12.4648C53.7528 13.3572 53.9135 14.2432 54.2357 15.0754C54.5374 15.8518 54.9868 16.5622 55.5591 17.1674C56.1252 17.7664 56.8095 18.2413 57.5686 18.5621C58.3618 18.8979 59.2155 19.0672 60.0768 19.0594Z" fill="#303030"/>
<path id="Vector_2" d="M83.8849 4.21924V20.7502H81.6067V16.7649H74.6172L75.3907 14.7616H81.6305V4.21924H83.8849Z" fill="#303030"/>
<path id="Vector_3" d="M72.8926 4.20801H70.627V20.7539H72.8926V4.20801Z" fill="#303030"/>
<path id="Vector_4" d="M29.1279 5.77519C28.8913 5.12868 28.5485 4.66004 28.0994 4.36928C27.6381 4.07276 27.0994 3.91928 26.5511 3.92814C26.0053 3.91728 25.4693 4.07385 25.0152 4.37678C24.5745 4.67671 24.2275 5.14951 23.9742 5.79518L18.3506 20.7578H20.7375L22.2034 16.7587L22.912 14.7505L25.9362 6.5525C25.9822 6.38044 26.063 6.21966 26.1737 6.08011C26.2196 6.02601 26.2772 5.98298 26.3421 5.9542C26.407 5.92543 26.4776 5.91165 26.5486 5.9139C26.6238 5.90947 26.6991 5.92211 26.7688 5.9509C26.8385 5.97968 26.9008 6.02385 26.951 6.08011C27.064 6.22195 27.1527 6.38158 27.2134 6.5525L30.1677 14.7555H24.754L23.9267 16.7637H30.8538L32.2947 20.7628H34.7766L29.1279 5.77519Z" fill="#CE080A"/>
<path id="Vector_5" d="M38.9517 14.7579V16.7612V20.7364H36.701L36.6998 16.7662H36.6973V13.6419V4.20801H38.9517V6.20877V14.7579Z" fill="#CE080A"/>
<path id="Vector_6" d="M49.3188 18.7469C49.0301 18.7469 48.8577 18.7232 48.659 18.5645C48.5203 18.4533 46.4745 16.1751 46.4695 16.1701C47.3957 15.7171 48.1765 15.0138 48.7234 14.1398C49.2703 13.2658 49.5614 12.256 49.5638 11.225V9.74415C49.5634 8.27597 48.98 6.86803 47.9419 5.82987C46.9037 4.79172 45.4958 4.20834 44.0276 4.20801H41.4532L40.6797 6.20752H43.2541C43.7866 6.20752 44.314 6.31246 44.806 6.51635C45.2981 6.72024 45.7451 7.01908 46.1216 7.39579C46.498 7.7725 46.7966 8.21971 47.0002 8.71185C47.2038 9.20399 47.3084 9.73143 47.3081 10.264V10.7052C47.3081 11.779 46.8822 12.8089 46.1238 13.5691C45.3655 14.3294 44.3366 14.7578 43.2628 14.7604H43.2541H41.4545L40.6797 16.7599H44.1026C44.1026 16.7599 46.8832 19.9754 47.3381 20.2991C47.8178 20.6126 48.3823 20.7714 48.9552 20.7539H50.0736L50.8484 18.7544L49.3188 18.7469Z" fill="#303030"/>
<path id="Vector_7" d="M10.7786 5.7514C10.5428 5.10572 10.1992 4.63709 9.7476 4.34549C9.28586 4.05029 8.74718 3.89812 8.19923 3.9081C7.6535 3.89748 7.11757 4.05403 6.66336 4.35674C6.22014 4.65417 5.87356 5.12655 5.62362 5.77389L0 20.7365H2.38691L3.8528 16.7374L4.56138 14.7279L7.58813 6.5312C7.63338 6.35721 7.71376 6.19433 7.82433 6.05257C7.87055 5.99884 7.92821 5.95614 7.99308 5.92759C8.05795 5.89905 8.12839 5.88539 8.19923 5.88761C8.27481 5.88264 8.35053 5.8949 8.42068 5.92348C8.49082 5.95205 8.55355 5.9962 8.60413 6.05257C8.71601 6.19523 8.80382 6.35522 8.86407 6.52621L11.8183 14.7279H6.40468L5.57863 16.7374H12.5044L13.9453 20.7365H16.4272L10.7786 5.7514Z" fill="#303030"/>
<path id="Vector_8" d="M96.5816 5.77514C96.3434 5.12697 96.0005 4.65833 95.5532 4.36924C95.0918 4.07272 94.5531 3.91924 94.0048 3.9281C93.4608 3.91986 92.9272 4.07768 92.4752 4.38049C92.0336 4.68041 91.6866 5.15321 91.4342 5.79889L85.8105 20.7615H88.1975L89.6634 16.7624L90.3719 14.7542L93.3899 6.55245C93.4359 6.3804 93.5167 6.21962 93.6274 6.08007C93.6734 6.02597 93.7309 5.98293 93.7959 5.95416C93.8608 5.92538 93.9313 5.91161 94.0023 5.91386C94.0775 5.90942 94.1528 5.92207 94.2225 5.95085C94.2922 5.97964 94.3545 6.02381 94.4047 6.08007C94.5177 6.2219 94.6064 6.38154 94.6671 6.55245L97.6214 14.7554H92.2165L91.3904 16.7637H98.3075L99.7484 20.7627H102.23L96.5816 5.77514Z" fill="#303030"/>
<path id="Vector_9" d="M113.876 3.15829H116.994L116.932 2.99083C116.651 2.22352 116.244 1.6674 115.712 1.32249C115.164 0.972815 114.526 0.792415 113.876 0.803864C113.229 0.79083 112.593 0.976637 112.054 1.33623C111.531 1.69115 111.12 2.25143 110.821 3.01707L104.148 20.7627H106.98L108.724 16.0239L109.563 13.642L113.146 3.9156C113.201 3.7115 113.297 3.52063 113.427 3.35449C113.483 3.29008 113.552 3.23897 113.629 3.20499C113.707 3.17102 113.791 3.15505 113.876 3.15829Z" fill="#303030"/>
<path id="Vector_10" d="M111.745 13.642L110.766 16.0239H118.979L118.165 13.642H111.745Z" fill="#303030"/>
<path id="Vector_11" d="M120.037 11.2338L116.993 3.15827H113.875C113.946 3.15734 114.017 3.16659 114.086 3.18576C114.187 3.21565 114.278 3.27426 114.346 3.35447C114.408 3.42813 114.462 3.50814 114.507 3.59316C114.563 3.69743 114.612 3.80512 114.655 3.91558L118.154 13.6419L118.967 16.0239L119.421 17.281L120.677 20.7614L122.16 16.8874L120.037 11.2338Z" fill="#FDDD5B"/>
<path id="Vector_12" d="M124.058 11.96L120.688 20.7615H123.631L127 11.96H124.058Z" fill="#CE080A"/>
</g>
</svg>
